<svg width="128" height="26" viewBox="0 0 128 26" fill="none" xmlns="http://www.w3.org/2000/svg">
<g clip-path="url(#clip0_511_2204)">
<path d="M32.1749 20.2021C31.2049 20.2021 30.3696 20.0404 29.6691 19.7171C28.982 19.3938 28.4498 18.929 28.0726 18.3227C27.6954 17.7165 27.5001 16.9957 27.4866 16.1604H29.3053C29.3053 16.9014 29.5546 17.4874 30.053 17.9185C30.565 18.3497 31.2723 18.5652 32.1749 18.5652C33.0237 18.5652 33.6838 18.3564 34.1553 17.9388C34.6403 17.5211 34.8828 16.9418 34.8828 16.2008C34.8828 15.6081 34.7212 15.0894 34.3978 14.6448C34.088 14.2002 33.6366 13.8903 33.0439 13.7152L31.0432 13.0888C30.0328 12.7789 29.2514 12.2602 28.6991 11.5327C28.1602 10.8052 27.8907 9.94972 27.8907 8.96625C27.8907 8.17139 28.0659 7.48431 28.4162 6.905C28.7799 6.31222 29.2851 5.85417 29.9318 5.53083C30.5785 5.19403 31.3396 5.02562 32.2153 5.02562C33.5087 5.02562 34.546 5.38937 35.3274 6.11688C36.1088 6.8309 36.5062 7.78743 36.5197 8.98646H34.701C34.701 8.25896 34.4787 7.69313 34.0341 7.28896C33.603 6.87132 32.99 6.6625 32.1951 6.6625C31.4137 6.6625 30.8007 6.85111 30.3562 7.22833C29.9251 7.60556 29.7095 8.13097 29.7095 8.80458C29.7095 9.41083 29.8712 9.93625 30.1945 10.3808C30.5178 10.8254 30.9826 11.142 31.5889 11.3306L33.6097 11.9773C34.5932 12.2872 35.3544 12.8126 35.8932 13.5535C36.4321 14.2945 36.7016 15.1635 36.7016 16.1604C36.7016 16.9687 36.513 17.676 36.1357 18.2823C35.7585 18.8885 35.2264 19.3601 34.5393 19.6969C33.8657 20.0337 33.0776 20.2021 32.1749 20.2021ZM45.7268 20C45.0801 20 44.5143 19.872 44.0293 19.616C43.5443 19.3601 43.1671 18.9963 42.8976 18.5248C42.6282 18.0533 42.4935 17.5009 42.4935 16.8677V6.905H38.7549V5.24792H44.3122V16.8677C44.3122 17.3258 44.4402 17.6895 44.6962 17.959C44.9522 18.2149 45.2957 18.3429 45.7268 18.3429H49.2633V20H45.7268ZM55.3583 20.2021C54.1862 20.2021 53.2634 19.9057 52.5897 19.3129C51.9161 18.7067 51.5793 17.8916 51.5793 16.8677C51.5793 15.8303 51.9161 15.0153 52.5897 14.4225C53.2634 13.8297 54.1727 13.5333 55.3179 13.5333H58.7533V12.4219C58.7533 11.7348 58.5445 11.2094 58.1268 10.8456C57.7227 10.4684 57.1434 10.2798 56.3889 10.2798C55.7288 10.2798 55.1764 10.4213 54.7318 10.7042C54.2872 10.9736 54.0313 11.3441 53.9639 11.8156H52.1452C52.2664 10.8591 52.7177 10.0979 53.4991 9.53208C54.2805 8.96625 55.2572 8.68333 56.4293 8.68333C57.7092 8.68333 58.7196 9.0134 59.4606 9.67354C60.2016 10.3337 60.572 11.2296 60.572 12.3613V20H58.7937V17.8781H58.4906L58.7937 17.575C58.7937 18.3833 58.4771 19.0233 57.8439 19.4948C57.2242 19.9663 56.3957 20.2021 55.3583 20.2021ZM55.8029 18.7673C56.6651 18.7673 57.3724 18.5517 57.9247 18.1206C58.4771 17.6895 58.7533 17.1372 58.7533 16.4635V14.8873H55.3583C54.752 14.8873 54.2738 15.0557 53.9235 15.3925C53.5732 15.7293 53.3981 16.1874 53.3981 16.7667C53.3981 17.3864 53.6069 17.8781 54.0245 18.2419C54.4557 18.5922 55.0484 18.7673 55.8029 18.7673ZM64.2421 20V8.88542H66.0608V11.0073H66.4448L66.0608 11.4317C66.0608 10.556 66.3235 9.88236 66.8489 9.41083C67.3744 8.92583 68.1019 8.68333 69.0314 8.68333C70.1496 8.68333 71.0388 9.02688 71.6989 9.71396C72.3591 10.401 72.6891 11.3374 72.6891 12.5229V20H70.8704V12.725C70.8704 11.9301 70.6548 11.3239 70.2237 10.9063C69.8061 10.4751 69.2335 10.2596 68.506 10.2596C67.7516 10.2596 67.1521 10.4886 66.7075 10.9467C66.2764 11.4047 66.0608 12.0649 66.0608 12.9271V20H64.2421ZM77.7535 23.6375V21.9804H81.29C81.8558 21.9804 82.2667 21.8524 82.5227 21.5965C82.7922 21.3405 82.9269 20.9431 82.9269 20.4042V18.9896L82.9673 16.9688H82.6035L82.9471 16.6656C82.9471 17.474 82.6776 18.1139 82.1387 18.5854C81.5999 19.0569 80.8791 19.2927 79.9765 19.2927C78.8313 19.2927 77.9287 18.9222 77.2685 18.1813C76.6084 17.4268 76.2783 16.4164 76.2783 15.15V12.8058C76.2783 11.5394 76.6084 10.5358 77.2685 9.79479C77.9287 9.05382 78.8313 8.68333 79.9765 8.68333C80.8791 8.68333 81.5999 8.9191 82.1387 9.39062C82.6776 9.86215 82.9471 10.5021 82.9471 11.3104L82.6035 11.0073H82.9471V8.88542H84.7456V20.4042C84.7456 21.4011 84.4358 22.1892 83.816 22.7685C83.2098 23.3478 82.361 23.6375 81.2698 23.6375H77.7535ZM80.5221 17.7165C81.2765 17.7165 81.8693 17.4807 82.3004 17.0092C82.7315 16.5376 82.9471 15.8842 82.9471 15.049V12.9271C82.9471 12.0918 82.7315 11.4384 82.3004 10.9669C81.8693 10.4953 81.2765 10.2596 80.5221 10.2596C79.7542 10.2596 79.1547 10.4886 78.7235 10.9467C78.3059 11.4047 78.0971 12.0649 78.0971 12.9271V15.049C78.0971 15.9112 78.3059 16.5713 78.7235 17.0294C79.1547 17.4874 79.7542 17.7165 80.5221 17.7165ZM88.3348 20V18.1813L94.9834 6.905H88.4359V5.24792H96.8223V7.06667L90.1738 18.3429H97.0244V20H88.3348ZM104.797 20.2021C103.921 20.2021 103.153 20.0269 102.493 19.6767C101.846 19.3264 101.341 18.8347 100.977 18.2015C100.627 17.5548 100.452 16.8071 100.452 15.9583V12.9271C100.452 12.0649 100.627 11.3172 100.977 10.684C101.341 10.0508 101.846 9.55903 102.493 9.20875C103.153 8.85847 103.921 8.68333 104.797 8.68333C105.672 8.68333 106.434 8.85847 107.08 9.20875C107.74 9.55903 108.246 10.0508 108.596 10.684C108.96 11.3172 109.142 12.0649 109.142 12.9271V14.8873H102.23V15.9583C102.23 16.834 102.453 17.5076 102.897 17.9792C103.342 18.4372 103.975 18.6663 104.797 18.6663C105.497 18.6663 106.063 18.545 106.494 18.3025C106.925 18.0465 107.188 17.6693 107.282 17.1708H109.101C108.98 18.1004 108.522 18.8414 107.727 19.3938C106.946 19.9326 105.969 20.2021 104.797 20.2021ZM107.363 13.6748V12.9271C107.363 12.0514 107.141 11.3778 106.696 10.9063C106.265 10.4347 105.632 10.199 104.797 10.199C103.975 10.199 103.342 10.4347 102.897 10.9063C102.453 11.3778 102.23 12.0514 102.23 12.9271V13.5131H107.505L107.363 13.6748ZM116.914 20.2021C116.038 20.2021 115.27 20.0269 114.61 19.6767C113.963 19.3264 113.458 18.8347 113.094 18.2015C112.744 17.5548 112.569 16.8071 112.569 15.9583V12.9271C112.569 12.0649 112.744 11.3172 113.094 10.684C113.458 10.0508 113.963 9.55903 114.61 9.20875C115.27 8.85847 116.038 8.68333 116.914 8.68333C117.79 8.68333 118.551 8.85847 119.197 9.20875C119.857 9.55903 120.363 10.0508 120.713 10.684C121.077 11.3172 121.259 12.0649 121.259 12.9271V14.8873H114.347V15.9583C114.347 16.834 114.57 17.5076 115.014 17.9792C115.459 18.4372 116.092 18.6663 116.914 18.6663C117.614 18.6663 118.18 18.545 118.611 18.3025C119.042 18.0465 119.305 17.6693 119.399 17.1708H121.218C121.097 18.1004 120.639 18.8414 119.844 19.3938C119.063 19.9326 118.086 20.2021 116.914 20.2021ZM119.48 13.6748V12.9271C119.48 12.0514 119.258 11.3778 118.813 10.9063C118.382 10.4347 117.749 10.199 116.914 10.199C116.092 10.199 115.459 10.4347 115.014 10.9063C114.57 11.3778 114.347 12.0514 114.347 12.9271V13.5131H119.622L119.48 13.6748Z" fill="#E9E9E9"/>
<g clip-path="url(#clip1_511_2204)">
<path d="M17.4152 17.1641L18 20.0668L14.89 19.521L6.47651 11.6684L9.00173 9.31152L17.4152 17.1641ZM15.2245 18.9293L17.1417 19.2657L16.7812 17.4764L9.00173 10.2155L7.44502 11.6684L15.2245 18.9293Z" fill="#E9E9E9"/>
<path d="M6.52516 7L8.42023 8.76873L5.89505 11.1256L3.99999 9.35683L6.52516 7ZM7.45171 8.76873L6.52516 7.90395L4.9685 9.35683L5.89505 10.2216L7.45171 8.76873Z" fill="#E9E9E9"/>
</g>
<g clip-path="url(#clip2_511_2204)">
<path d="M9.58482 6.90228L9 3.99962L12.11 4.54545L20.5235 12.398L17.9983 14.7549L9.58482 6.90228ZM11.7755 5.13713L9.85825 4.80066L10.2188 6.59005L17.9983 13.8509L19.555 12.398L11.7755 5.13713Z" fill="#E9E9E9"/>
<path d="M20.4748 17.0664L18.5798 15.2977L21.1049 12.9408L23 14.7096L20.4748 17.0664ZM19.5483 15.2977L20.4748 16.1625L22.0315 14.7096L21.1049 13.8448L19.5483 15.2977Z" fill="#E9E9E9"/>
</g>
</g>
<defs>
<clipPath id="clip0_511_2204">
<rect width="128" height="26" fill="white"/>
</clipPath>
<clipPath id="clip1_511_2204">
<rect width="14" height="13.0667" fill="white" transform="matrix(-1 0 0 1 18 7)"/>
</clipPath>
<clipPath id="clip2_511_2204">
<rect width="14" height="13.0667" fill="white" transform="matrix(1 0 0 -1 9 17.0664)"/>
</clipPath>
</defs>
</svg>
